RobotoSerifText-SuperCond 02r.ufo
<glyph name="numbersign" format="2">
  <advance width="528"/>
  <unicode hex="0023"/>
  <outline>
    <contour>
      <point x="37.0" y="0.0" type="line"/>
      <point x="130.0" y="0.0" type="line"/>
      <point x="309.0" y="750.0" type="line"/>
      <point x="216.0" y="750.0" type="line"/>
    </contour>
    <contour>
      <point x="5.0" y="191.0" type="line"/>
      <point x="476.0" y="191.0" type="line"/>
      <point x="476.0" y="330.0" type="line"/>
      <point x="5.0" y="330.0" type="line"/>
    </contour>
    <contour>
      <point x="54.0" y="440.0" type="line"/>
      <point x="526.0" y="440.0" type="line"/>
      <point x="526.0" y="579.0" type="line"/>
      <point x="54.0" y="579.0" type="line"/>
    </contour>
    <contour>
      <point x="205.0" y="0.0" type="line"/>
      <point x="298.0" y="0.0" type="line"/>
      <point x="477.0" y="750.0" type="line"/>
      <point x="382.0" y="750.0" type="line"/>
    </contour>
  </outline>
</glyph>
<glyph name="parenleft" format="2">
  <advance width="328"/>
  <unicode hex="0028"/>
  <outline>
    <contour>
      <point x="207.0" y="310.0" type="curve" smooth="yes"/>
      <point x="207.0" y="113.0"/>
      <point x="269.0" y="-50.0"/>
      <point x="325.0" y="-127.0" type="curve"/>
      <point x="325.0" y="-130.0" type="line"/>
      <point x="195.0" y="-130.0" type="line"/>
      <point x="100.0" y="-51.0"/>
      <point x="17.0" y="116.0"/>
      <point x="17.0" y="310.0" type="curve" smooth="yes"/>
      <point x="17.0" y="504.0"/>
      <point x="100.0" y="671.0"/>
      <point x="195.0" y="750.0" type="curve"/>
      <point x="325.0" y="750.0" type="line"/>
      <point x="325.0" y="747.0" type="line"/>
      <point x="269.0" y="670.0"/>
      <point x="207.0" y="507.0"/>
    </contour>
  </outline>
</glyph>
<glyph name="seven" format="2">
  <advance width="472"/>
  <unicode hex="0037"/>
  <outline>
    <contour>
      <point x="187.0" y="461.0" type="line" smooth="yes"/>
      <point x="139.0" y="461.0"/>
      <point x="122.0" y="454.0"/>
      <point x="118.0" y="418.0" type="curve" smooth="yes"/>
      <point x="113.0" y="343.0" type="line"/>
      <point x="41.0" y="343.0" type="line"/>
      <point x="41.0" y="609.0" type="line"/>
      <point x="454.0" y="609.0" type="line"/>
      <point x="454.0" y="475.0" type="line"/>
      <point x="369.0" y="330.0"/>
      <point x="326.0" y="228.0"/>
      <point x="324.0" y="-77.0" type="curve"/>
      <point x="118.0" y="-77.0" type="line"/>
      <point x="134.0" y="213.0"/>
      <point x="310.0" y="411.0"/>
      <point x="393.0" y="496.0" type="curve"/>
      <point x="418.0" y="461.0" type="line"/>
    </contour>
  </outline>
</glyph>
<glyph name="A" format="2">
  <advance width="603"/>
  <unicode hex="0041"/>
  <outline>
    <contour>
      <point x="122" y="306" type="line"/>
      <point x="123" y="223" type="line"/>
      <point x="332" y="223" type="line"/>
      <point x="333" y="306" type="line"/>
    </contour>
    <contour>
      <point x="194" y="674" type="line"/>
      <point x="320" y="87" type="line"/>
      <point x="320" y="80"/>
      <point x="304" y="77"/>
      <point x="286" y="77" type="curve" smooth="yes"/>
      <point x="274" y="77" type="line"/>
      <point x="274" y="0" type="line"/>
      <point x="594" y="0" type="line"/>
      <point x="594" y="77" type="line"/>
      <point x="588" y="77" type="line"/>
      <point x="571" y="77"/>
      <point x="563" y="82"/>
      <point x="559" y="98" type="curve" smooth="yes"/>
      <point x="425" y="710" type="line"/>
      <point x="174" y="710" type="line"/>
      <point x="42" y="107" type="line" smooth="yes"/>
      <point x="37" y="82"/>
      <point x="28" y="77"/>
      <point x="15" y="77" type="curve"/>
      <point x="9" y="77" type="line"/>
      <point x="9" y="0" type="line"/>
      <point x="174" y="0" type="line"/>
      <point x="174" y="77" type="line"/>
      <point x="164" y="77" type="line" smooth="yes"/>
      <point x="146" y="77"/>
      <point x="131" y="84"/>
      <point x="131" y="95" type="curve"/>
      <point x="244" y="621" type="line"/>
    </contour>
  </outline>
</glyph>
<glyph name="F" format="2">
  <advance width="511"/>
  <unicode hex="0046"/>
  <outline>
    <contour>
      <point x="289.0" y="623.0" type="line"/>
      <point x="329" y="623.0" type="line" smooth="yes"/>
      <point x="376" y="623.0"/>
      <point x="394" y="608"/>
      <point x="397" y="557" type="curve" smooth="yes"/>
      <point x="400.0" y="503.0" type="line"/>
      <point x="497.0" y="503.0" type="line"/>
      <point x="497.0" y="710.0" type="line"/>
      <point x="14.0" y="710.0" type="line"/>
      <point x="14.0" y="633.0" type="line"/>
      <point x="26.0" y="633.0" type="line"/>
      <point x="41.0" y="633.0"/>
      <point x="52.0" y="628.0"/>
      <point x="52.0" y="607.0" type="curve" smooth="yes"/>
      <point x="52.0" y="103.0" type="line" smooth="yes"/>
      <point x="52.0" y="82.0"/>
      <point x="41.0" y="77.0"/>
      <point x="26.0" y="77.0" type="curve"/>
      <point x="14.0" y="77.0" type="line"/>
      <point x="14.0" y="0.0" type="line"/>
      <point x="347.0" y="0.0" type="line"/>
      <point x="347.0" y="77.0" type="line"/>
      <point x="315.0" y="77.0" type="line" smooth="yes"/>
      <point x="300.0" y="77.0"/>
      <point x="289.0" y="82.0"/>
      <point x="289.0" y="103.0" type="curve" smooth="yes"/>
    </contour>
    <contour>
      <point x="257.0" y="391.0" type="curve"/>
      <point x="257.0" y="316.0" type="line"/>
      <point x="316.9459177712312" y="310.64768591328294"/>
      <point x="375.9005085340908" y="307.28272354937303"/>
      <point x="438.0" y="303.0" type="curve"/>
      <point x="438.0" y="404.0" type="line"/>
      <point x="376.9718420723477" y="399.71732225069104"/>
      <point x="316.9459177712312" y="396.35231408671706"/>
    </contour>
  </outline>
</glyph>
<glyph name="P" format="2">
  <advance width="621"/>
  <unicode hex="0050"/>
  <outline>
    <contour>
      <point x="299.0" y="87.0" type="line" smooth="yes"/>
      <point x="299.0" y="80.0"/>
      <point x="313.0" y="77.0"/>
      <point x="326.0" y="77.0" type="curve" smooth="yes"/>
      <point x="345.0" y="77.0" type="line"/>
      <point x="345.0" y="0.0" type="line"/>
      <point x="14.0" y="0.0" type="line"/>
      <point x="14.0" y="77.0" type="line"/>
      <point x="22.0" y="77.0" type="line" smooth="yes"/>
      <point x="39.0" y="77.0"/>
      <point x="52.0" y="84.0"/>
      <point x="52.0" y="113.0" type="curve" smooth="yes"/>
      <point x="52.0" y="597.0" type="line" smooth="yes"/>
      <point x="52.0" y="626.0"/>
      <point x="39.0" y="633.0"/>
      <point x="22.0" y="633.0" type="curve" smooth="yes"/>
      <point x="14.0" y="633.0" type="line"/>
      <point x="14.0" y="710.0" type="line"/>
      <point x="377.0" y="710.0" type="line" smooth="yes"/>
      <point x="531.0" y="710.0"/>
      <point x="620.0" y="633.0"/>
      <point x="620.0" y="496.0" type="curve" smooth="yes"/>
      <point x="620.0" y="353.0"/>
      <point x="526.0" y="268.0"/>
      <point x="373.0" y="268.0" type="curve" smooth="yes"/>
      <point x="273.0" y="268.0" type="line"/>
      <point x="273.0" y="355.0" type="line"/>
      <point x="308.0" y="355.0" type="line" smooth="yes"/>
      <point x="349.0" y="355.0"/>
      <point x="382.0" y="400.0"/>
      <point x="382.0" y="491.0" type="curve" smooth="yes"/>
      <point x="382.0" y="583.0"/>
      <point x="349.0" y="622.0"/>
      <point x="311.0" y="622.0" type="curve" smooth="yes"/>
      <point x="299.0" y="622.0" type="line"/>
    </contour>
  </outline>
</glyph>
<glyph name="f" format="2">
  <advance width="389"/>
  <unicode hex="0066"/>
  <outline>
    <contour>
      <point x="-6.0" y="513.0" type="line"/>
      <point x="-6.0" y="432.0" type="line"/>
      <point x="379.0" y="432.0" type="line"/>
      <point x="379.0" y="513.0" type="line"/>
    </contour>
    <contour>
      <point x="407.0" y="735.0" type="line"/>
      <point x="394.0" y="741.0"/>
      <point x="352" y="748"/>
      <point x="299.0" y="748.0" type="curve" smooth="yes"/>
      <point x="132" y="748.0"/>
      <point x="48" y="683"/>
      <point x="48.0" y="558.0" type="curve" smooth="yes"/>
      <point x="48.0" y="102.0" type="line" smooth="yes"/>
      <point x="48" y="81"/>
      <point x="38.0" y="72.0"/>
      <point x="19.0" y="72.0" type="curve" smooth="yes"/>
      <point x="9.0" y="72.0" type="line"/>
      <point x="9.0" y="0.0" type="line"/>
      <point x="329.0" y="0.0" type="line"/>
      <point x="329.0" y="72.0" type="line"/>
      <point x="322.0" y="72.0" type="line" smooth="yes"/>
      <point x="305.0" y="72.0"/>
      <point x="279" y="74"/>
      <point x="279.0" y="80.0" type="curve" smooth="yes"/>
      <point x="279.0" y="579.0" type="line" smooth="yes"/>
      <point x="279.0" y="637.0"/>
      <point x="297.0" y="658.0"/>
      <point x="343.0" y="658.0" type="curve" smooth="yes"/>
      <point x="374" y="658"/>
      <point x="397" y="654"/>
      <point x="407.0" y="650.0" type="curve"/>
    </contour>
  </outline>
</glyph>
<glyph name="l" format="2">
  <advance width="292"/>
  <unicode hex="006C"/>
  <anchor x="154" y="746" name="top"/>
  <anchor x="275" y="735" name="right"/>
  <anchor x="338" y="391" name="mid"/>
  <anchor x="158" y="0" name="bottom"/>
  <outline>
    <contour>
      <point x="263.0" y="735.0" type="line"/>
      <point x="10.0" y="735.0" type="line"/>
      <point x="10.0" y="660.0" type="line"/>
      <point x="16.0" y="658.0" type="line" smooth="yes"/>
      <point x="27.0" y="651.0"/>
      <point x="31.0" y="647.0"/>
      <point x="31.0" y="629.0" type="curve" smooth="yes"/>
      <point x="31.0" y="99.0" type="line" smooth="yes"/>
      <point x="31.0" y="78.0"/>
      <point x="21.0" y="72.0"/>
      <point x="11.0" y="72.0" type="curve" smooth="yes"/>
      <point x="10.0" y="72.0" type="line"/>
      <point x="10.0" y="0.0" type="line"/>
      <point x="283.0" y="0.0" type="line"/>
      <point x="283.0" y="72.0" type="line"/>
      <point x="283.0" y="72.0" type="line" smooth="yes"/>
      <point x="272.0" y="72.0"/>
      <point x="263.0" y="78.0"/>
      <point x="263.0" y="99.0" type="curve" smooth="yes"/>
    </contour>
  </outline>
</glyph>
<glyph name="m" format="2">
  <advance width="865"/>
  <unicode hex="006D"/>
  <anchor x="434" y="-10" name="bottom"/>
  <outline>
    <contour>
      <point x="10.0" y="0.0" type="line" identifier="nFQ4sXl92a"/>
      <point x="276.0" y="0.0" type="line" identifier="s7TyDLX4ya"/>
      <point x="276.0" y="72.0" type="line" identifier="uHgpWDtg9I"/>
      <point x="269.0" y="72.0" type="line" identifier="0UKjKyewjk"/>
      <point x="266.0" y="72.0" identifier="sDSVse5rHM"/>
      <point x="263" y="74" identifier="XxN8niompk"/>
      <point x="263.0" y="80.0" type="curve" smooth="yes" identifier="3Fjt7gKUKe"/>
      <point x="263.0" y="394.0" type="line" identifier="0NqPnXrWGT"/>
      <point x="250.0" y="394.0" type="line" identifier="LwZNChRUd8"/>
      <point x="250.0" y="513.0" type="line" identifier="5dYLvYVSBY"/>
      <point x="10.0" y="513.0" type="line" identifier="Hjh1CSnRh0"/>
      <point x="10.0" y="438.0" type="line" identifier="kjzi9vLvzp"/>
      <point x="15.0" y="436.0" type="line" smooth="yes" identifier="koqU3mhheQ"/>
      <point x="27" y="431" identifier="mxZgV28OQf"/>
      <point x="30" y="427" identifier="WDgYJ2WlBk"/>
      <point x="30.0" y="417.0" type="curve" smooth="yes" identifier="JKSPdQnTRt"/>
      <point x="30.0" y="89.0" type="line" smooth="yes" identifier="qvXJkwmGNI"/>
      <point x="30" y="76" identifier="XLj03oMzm6"/>
      <point x="21.0" y="72.0" identifier="CMVjPPVu4u"/>
      <point x="10.0" y="72.0" type="curve" smooth="yes" identifier="PSZhtm5ebG"/>
      <point x="10.0" y="72.0" type="line" identifier="jb0Qccr8qh"/>
    </contour>
    <contour>
      <point x="563.0" y="0.0" type="line" identifier="NOv29S44Pm"/>
      <point x="563.0" y="72.0" type="line" identifier="8hsDi45Rk2"/>
      <point x="558.0" y="72.0" type="line" identifier="lFQEYZlO4f"/>
      <point x="554.0" y="72.0" identifier="Hjgk5lb26R"/>
      <point x="550" y="74" identifier="63qOGomAnz"/>
      <point x="550.0" y="80.0" type="curve" smooth="yes" identifier="fkACG6eRjI"/>
      <point x="550.0" y="345.0" type="line" smooth="yes" identifier="QNaSDo5KNT"/>
      <point x="550.0" y="461.0" identifier="2WxKkhmosX"/>
      <point x="508.43835616438355" y="523.0" identifier="jCINPoOYTl"/>
      <point x="402.0" y="523.0" type="curve" smooth="yes" identifier="F56yN07VUq"/>
      <point x="313" y="523.0" identifier="nRBaT8E1uv"/>
      <point x="251" y="486" identifier="1u5IAnfyZf"/>
      <point x="236.0" y="388.0" type="curve" identifier="3kp42EvziT"/>
      <point x="241.0" y="304.0" type="line" identifier="bEiKSVmUai"/>
      <point x="260" y="387" identifier="pNbfyrO4Cr"/>
      <point x="278" y="397.0" identifier="HzNuijJsWn"/>
      <point x="294" y="397" type="curve" smooth="yes" identifier="QgpUXb0ZDz"/>
      <point x="309" y="397" identifier="btxJw0eue3"/>
      <point x="317.0" y="388.0" identifier="nXxiYRioQN"/>
      <point x="317.0" y="349" type="curve" smooth="yes" identifier="nacyuzcdLL"/>
      <point x="317.0" y="80.0" type="line" smooth="yes" identifier="B7oYGi9wBG"/>
      <point x="317" y="74" identifier="EnEU9qjzMq"/>
      <point x="313.0" y="72.0" identifier="5E0LsvutJn"/>
      <point x="308.0" y="72.0" type="curve" identifier="l9iRxy9Rhr"/>
      <point x="304.0" y="72.0" type="line" identifier="A6EZLDdYcq"/>
      <point x="304.0" y="0.0" type="line" identifier="Wa6Vx198t5"/>
    </contour>
    <contour>
      <point x="857.0" y="0.0" type="line" identifier="TpSm5Pcppe"/>
      <point x="857.0" y="72.0" type="line" identifier="XQP1Zz7Eyk"/>
      <point x="855" y="72.0" type="line" smooth="yes" identifier="ad8z5zb83s"/>
      <point x="845" y="72" identifier="GpxfwMUdru"/>
      <point x="837.0" y="77" identifier="WFOiGZDZ7A"/>
      <point x="837.0" y="89.0" type="curve" identifier="SEEDWB8LHw"/>
      <point x="837.0" y="345.0" type="line" smooth="yes" identifier="hQcZ2TJX5p"/>
      <point x="837" y="461" identifier="vAmp0YJGSz"/>
      <point x="795" y="523.0" identifier="gy4hk6i94w"/>
      <point x="689.0" y="523.0" type="curve" smooth="yes" identifier="gCeeWosIXS"/>
      <point x="600" y="523.0" identifier="VincQRWr2K"/>
      <point x="539" y="486" identifier="j3VavVUrdR"/>
      <point x="527.0" y="382.0" type="curve" identifier="i8Lxx01Hm2"/>
      <point x="529.0" y="304.0" type="line" identifier="KDbRU7SxI1"/>
      <point x="549" y="388" identifier="HwzbLtrjkh"/>
      <point x="565" y="397.0" identifier="HM44iAu5yj"/>
      <point x="581" y="397" type="curve" smooth="yes" identifier="lZwvjzCoSX"/>
      <point x="597" y="397" identifier="83vbbV3dHr"/>
      <point x="604.0" y="388.0" identifier="YoqJlUfbfQ"/>
      <point x="604.0" y="348" type="curve" smooth="yes" identifier="BchEiwopG1"/>
      <point x="604.0" y="80.0" type="line" smooth="yes" identifier="nNkMphBlje"/>
      <point x="604" y="74" identifier="DZexX7evQo"/>
      <point x="600.0" y="72.0" identifier="fDU6WKKC3d"/>
      <point x="595.0" y="72.0" type="curve" identifier="EkzrJhKLM4"/>
      <point x="590.0" y="72.0" type="line" identifier="wRTLn08uB2"/>
      <point x="590.0" y="0.0" type="line" identifier="uyHffmVp4D"/>
    </contour>
  </outline>
</glyph>
<glyph name="q" format="2">
  <advance width="583"/>
  <unicode hex="0071"/>
  <outline>
    <contour>
      <point x="282.0" y="-223.0" type="line"/>
      <point x="573.0" y="-223.0" type="line"/>
      <point x="573.0" y="-151.0" type="line"/>
      <point x="573.0" y="-151.0" type="line" smooth="yes"/>
      <point x="563.0" y="-151.0"/>
      <point x="554.0" y="-145.0"/>
      <point x="554.0" y="-124.0" type="curve" smooth="yes"/>
      <point x="554.0" y="514.0" type="line"/>
      <point x="420.0" y="514.0" type="line"/>
      <point x="342.0" y="400.0" type="line"/>
      <point x="321.0" y="402.0" type="line"/>
      <point x="321.0" y="-143.0" type="line" smooth="yes"/>
      <point x="321.0" y="-149.0"/>
      <point x="297.0" y="-151.0"/>
      <point x="279.0" y="-151.0" type="curve"/>
      <point x="282.0" y="-151.0" type="line"/>
    </contour>
    <contour>
      <point x="211.0" y="523.0" type="curve" smooth="yes"/>
      <point x="97.0" y="523.0"/>
      <point x="15.0" y="410.0"/>
      <point x="15.0" y="250.0" type="curve" smooth="yes"/>
      <point x="15.0" y="94.0"/>
      <point x="89.0" y="-10.0"/>
      <point x="204.0" y="-10.0" type="curve" smooth="yes"/>
      <point x="291.0" y="-10.0"/>
      <point x="330.0" y="41.0"/>
      <point x="369.0" y="139.0" type="curve"/>
      <point x="369.0" y="253.0" type="line"/>
      <point x="320.0" y="143.0"/>
      <point x="311.0" y="97.0"/>
      <point x="284.0" y="97.0" type="curve" smooth="yes"/>
      <point x="259.0" y="97.0"/>
      <point x="252.0" y="150.0"/>
      <point x="252.0" y="250.0" type="curve" smooth="yes"/>
      <point x="252.0" y="352.0"/>
      <point x="260.0" y="416.0"/>
      <point x="292.0" y="416.0" type="curve" smooth="yes"/>
      <point x="323.0" y="416.0"/>
      <point x="330.0" y="372.0"/>
      <point x="369.0" y="280.0" type="curve"/>
      <point x="369.0" y="394.0" type="line"/>
      <point x="344.0" y="479.0"/>
      <point x="293.0" y="523.0"/>
    </contour>
  </outline>
</glyph>
<glyph name="r" format="2">
  <advance width="419"/>
  <unicode hex="0072"/>
  <anchor x="231" y="513" name="top"/>
  <anchor x="166" y="0" name="bottom"/>
  <outline>
    <contour>
      <point x="401.0" y="512.0" type="line" identifier="1PkTY9c8E8"/>
      <point x="395.0" y="515.0" identifier="VQrstYMWQX"/>
      <point x="384.0" y="518.0" identifier="h9Puma7BXo"/>
      <point x="366.0" y="518.0" type="curve" smooth="yes" identifier="QL8p99KIvA"/>
      <point x="282.0" y="518.0" identifier="zw3qgnBiZJ"/>
      <point x="263.0" y="458.0" identifier="zJXvS83W3t"/>
      <point x="246.0" y="328.0" type="curve" identifier="9RB2mzOmLb"/>
      <point x="241.0" y="269.0" type="line" identifier="eEqqS09KUv"/>
      <point x="253.80740843665237" y="302.84815086829553" identifier="dytpPHZJln"/>
      <point x="288.0" y="315.0" identifier="EkcHnnPbQ5"/>
      <point x="344" y="315" type="curve" smooth="yes" identifier="n3jcoWcUhB"/>
      <point x="367" y="315" identifier="Bi8FNWIlRt"/>
      <point x="385.0" y="313.0" identifier="WpS8Se4pum"/>
      <point x="400.0" y="310.0" type="curve" identifier="qIvZ3ev2HJ"/>
    </contour>
    <contour>
      <point x="10.0" y="0.0" type="line" identifier="vRmbO62OtU"/>
      <point x="302.0" y="0.0" type="line" identifier="xCQZC3Iuft"/>
      <point x="302.0" y="72.0" type="line" identifier="wsCUwAdM2R"/>
      <point x="302.0" y="72.0" type="line" identifier="mQXF7ZgP7A"/>
      <point x="284.0" y="72.0" identifier="ouZmRvuUn2"/>
      <point x="263" y="74" identifier="tgdweMCfO3"/>
      <point x="263.0" y="80" type="curve" smooth="yes" identifier="RuvOxsVDIE"/>
      <point x="263.0" y="342.0" type="line" identifier="q6nXDrzqXT"/>
      <point x="250.0" y="345.0" type="line" identifier="nddebgqOI3"/>
      <point x="250.0" y="513.0" type="line" identifier="pNaMJytObS"/>
      <point x="10.0" y="513.0" type="line" identifier="YvboQQxxUj"/>
      <point x="10.0" y="438.0" type="line" identifier="jgk9Kq29GA"/>
      <point x="15.0" y="436.0" type="line" smooth="yes" identifier="04uNPXQ9NZ"/>
      <point x="27" y="431" identifier="eNSLIdmkX5"/>
      <point x="30" y="427" identifier="pU4Zgdz0Bx"/>
      <point x="30.0" y="417" type="curve" smooth="yes" identifier="9nCMWuKSL3"/>
      <point x="30.0" y="89.0" type="line" smooth="yes" identifier="qAcEZ2G29i"/>
      <point x="30" y="76" identifier="mHbssQDmVB"/>
      <point x="21.0" y="72.0" identifier="88Bu92LqLn"/>
      <point x="10.0" y="72.0" type="curve" smooth="yes" identifier="FvAtzjSoCZ"/>
      <point x="10.0" y="72.0" type="line" identifier="53ZItwVW2a"/>
    </contour>
  </outline>
</glyph>
<glyph name="s" format="2">
  <advance width="468"/>
  <unicode hex="0073"/>
  <anchor x="236" y="513" name="top"/>
  <anchor x="239" y="0" name="bottom"/>
  <outline>
    <contour>
      <point x="253.0" y="117.0" type="curve" smooth="yes"/>
      <point x="253.0" y="87"/>
      <point x="237.0" y="74.0"/>
      <point x="210.0" y="74.0" type="curve" smooth="yes"/>
      <point x="174.0" y="74.0"/>
      <point x="151.0" y="83.0"/>
      <point x="132.0" y="110.0" type="curve"/>
      <point x="97.0" y="117.0"/>
      <point x="102.0" y="66.0"/>
      <point x="150.0" y="46.0" type="curve"/>
      <point x="150.0" y="149.0" type="line"/>
      <point x="10.0" y="149.0" type="line"/>
      <point x="10.0" y="42.0" type="line"/>
      <point x="30.0" y="23.0"/>
      <point x="105.0" y="-10.0"/>
      <point x="207.0" y="-10.0" type="curve" smooth="yes"/>
      <point x="374.0" y="-10.0"/>
      <point x="459.0" y="52.0"/>
      <point x="459.0" y="173.0" type="curve" smooth="yes"/>
      <point x="459.0" y="291"/>
      <point x="372" y="327"/>
      <point x="299.0" y="350.0" type="curve" smooth="yes"/>
      <point x="249" y="367"/>
      <point x="205.0" y="374"/>
      <point x="205.0" y="409.0" type="curve" smooth="yes"/>
      <point x="205.0" y="432"/>
      <point x="220.0" y="444.0"/>
      <point x="241.0" y="444.0" type="curve" smooth="yes"/>
      <point x="270.0" y="444.0"/>
      <point x="285.0" y="433.0"/>
      <point x="304.0" y="413.0" type="curve"/>
      <point x="317.0" y="427.0"/>
      <point x="335.0" y="463.0"/>
      <point x="287.0" y="458.0" type="curve"/>
      <point x="287.0" y="379.0" type="line"/>
      <point x="426.0" y="379.0" type="line"/>
      <point x="426.0" y="478.0" type="line"/>
      <point x="411.0" y="493.0"/>
      <point x="351.0" y="527.0"/>
      <point x="241.0" y="527.0" type="curve" smooth="yes"/>
      <point x="112.0" y="527.0"/>
      <point x="17.0" y="470.0"/>
      <point x="17.0" y="355.0" type="curve" smooth="yes"/>
      <point x="17.0" y="227"/>
      <point x="98" y="194"/>
      <point x="165.0" y="174.0" type="curve" smooth="yes"/>
      <point x="212" y="159"/>
      <point x="253.0" y="151"/>
    </contour>
  </outline>
</glyph>
<glyph name="t" format="2">
  <advance width="369"/>
  <unicode hex="0074"/>
  <anchor x="150" y="675" name="top"/>
  <anchor x="310" y="681" name="right"/>
  <anchor x="253" y="0" name="bottom"/>
  <outline>
    <contour>
      <point x="-1.0" y="432.0" type="line"/>
      <point x="359.0" y="432.0" type="line"/>
      <point x="359.0" y="513.0" type="line"/>
      <point x="167.0" y="513.0" type="line"/>
      <point x="41.0" y="547.0" type="line"/>
      <point x="41.0" y="515.0"/>
      <point x="22.0" y="508.0"/>
      <point x="0.0" y="508.0" type="curve"/>
      <point x="-1.0" y="508.0" type="line"/>
    </contour>
    <contour>
      <point x="268.0" y="167.0" type="curve" smooth="yes"/>
      <point x="268.0" y="652.0" type="line"/>
      <point x="41.0" y="652.0" type="line"/>
      <point x="41.0" y="500.0" type="line"/>
      <point x="35.0" y="492.0" type="line"/>
      <point x="35.0" y="160.0" type="line" smooth="yes"/>
      <point x="35" y="28.0"/>
      <point x="113.99999999999999" y="-10.0"/>
      <point x="239.0" y="-10.0" type="curve" smooth="yes"/>
      <point x="302.0" y="-10.0"/>
      <point x="346.0" y="1.0"/>
      <point x="357.0" y="9.0" type="curve"/>
      <point x="357.0" y="95.0" type="line"/>
      <point x="353" y="93"/>
      <point x="331.0" y="87.0"/>
      <point x="312.0" y="87.0" type="curve" smooth="yes"/>
      <point x="281.0" y="87.0"/>
      <point x="268.0" y="98.0"/>
    </contour>
  </outline>
</glyph>
<glyph name="u" format="2">
  <advance width="581"/>
  <unicode hex="0075"/>
  <anchor x="268" y="513" name="top"/>
  <anchor x="449" y="0" name="right"/>
  <anchor x="265" y="0" name="bottom"/>
  <outline>
    <contour>
      <point x="262.0" y="513.0" type="line"/>
      <point x="9.0" y="513.0" type="line"/>
      <point x="9.0" y="438.0" type="line"/>
      <point x="14.0" y="436.0" type="line" smooth="yes"/>
      <point x="26" y="431"/>
      <point x="29" y="427"/>
      <point x="29.0" y="417" type="curve" smooth="yes"/>
      <point x="29" y="155" type="line" smooth="yes"/>
      <point x="29" y="38"/>
      <point x="92" y="-10"/>
      <point x="176" y="-10.0" type="curve" smooth="yes"/>
      <point x="272" y="-10.0"/>
      <point x="333.0" y="38.0"/>
      <point x="349.0" y="138.0" type="curve"/>
      <point x="343.0" y="213.0" type="line"/>
      <point x="326.0" y="134.0"/>
      <point x="309" y="116.0"/>
      <point x="285.0" y="116.0" type="curve" smooth="yes"/>
      <point x="272" y="116"/>
      <point x="262.0" y="127.0"/>
      <point x="262.0" y="164" type="curve" smooth="yes"/>
    </contour>
    <contour>
      <point x="553.0" y="513.0" type="line"/>
      <point x="286.0" y="513.0" type="line"/>
      <point x="286.0" y="438.0" type="line"/>
      <point x="298" y="434" type="line" smooth="yes"/>
      <point x="313" y="430"/>
      <point x="320" y="425"/>
      <point x="320.0" y="414" type="curve" smooth="yes"/>
      <point x="320.0" y="118.0" type="line"/>
      <point x="333.0" y="110.0" type="line"/>
      <point x="333.0" y="0.0" type="line"/>
      <point x="573.0" y="0.0" type="line"/>
      <point x="573.0" y="72.0" type="line"/>
      <point x="568.0" y="72.0" type="line" smooth="yes"/>
      <point x="555" y="72.0"/>
      <point x="553.0" y="81.0"/>
      <point x="553.0" y="91" type="curve" smooth="yes"/>
    </contour>
  </outline>
</glyph>
<glyph name="registered" format="2">
  <advance width="725"/>
  <unicode hex="00AE"/>
  <outline>
    <contour>
      <point x="362.0" y="43.0" type="curve" smooth="yes"/>
      <point x="213.0" y="43.0"/>
      <point x="115.0" y="179.0"/>
      <point x="115.0" y="355.0" type="curve" smooth="yes"/>
      <point x="115.0" y="531.0"/>
      <point x="213.0" y="667.0"/>
      <point x="362.0" y="667.0" type="curve" smooth="yes"/>
      <point x="512.0" y="667.0"/>
      <point x="611.0" y="531.0"/>
      <point x="611.0" y="355.0" type="curve" smooth="yes"/>
      <point x="611.0" y="179.0"/>
      <point x="512.0" y="43.0"/>
    </contour>
    <contour>
      <point x="362.0" y="-38.0" type="curve" smooth="yes"/>
      <point x="560.0" y="-38.0"/>
      <point x="702.0" y="133.0"/>
      <point x="702.0" y="355.0" type="curve" smooth="yes"/>
      <point x="702.0" y="577.0"/>
      <point x="560.0" y="748.0"/>
      <point x="362.0" y="748.0" type="curve" smooth="yes"/>
      <point x="166.0" y="748.0"/>
      <point x="24.0" y="577.0"/>
      <point x="24.0" y="355.0" type="curve" smooth="yes"/>
      <point x="24.0" y="133.0"/>
      <point x="166.0" y="-38.0"/>
    </contour>
    <contour>
      <point x="193.0" y="152.0" type="line"/>
      <point x="363.0" y="152.0" type="line"/>
      <point x="363.0" y="213.0" type="line"/>
      <point x="357.0" y="213.0" type="line" smooth="yes"/>
      <point x="351.0" y="213.0"/>
      <point x="349.0" y="215.0"/>
      <point x="349.0" y="219.0" type="curve" smooth="yes"/>
      <point x="349.0" y="308.0" type="line"/>
      <point x="378.0" y="308.0" type="line" smooth="yes"/>
      <point x="481.0" y="308.0"/>
      <point x="529.0" y="357.0"/>
      <point x="529.0" y="436.0" type="curve" smooth="yes"/>
      <point x="529.0" y="512.0"/>
      <point x="487.0" y="557.0"/>
      <point x="380.0" y="557.0" type="curve" smooth="yes"/>
      <point x="193.0" y="557.0" type="line"/>
      <point x="193.0" y="495.0" type="line"/>
      <point x="196.0" y="495.0" type="line" smooth="yes"/>
      <point x="206.0" y="495.0"/>
      <point x="217.0" y="491.0"/>
      <point x="217.0" y="475.0" type="curve" smooth="yes"/>
      <point x="217.0" y="233.0" type="line" smooth="yes"/>
      <point x="217.0" y="217.0"/>
      <point x="206.0" y="213.0"/>
      <point x="196.0" y="213.0" type="curve" smooth="yes"/>
      <point x="193.0" y="213.0" type="line"/>
    </contour>
    <contour>
      <point x="355.0" y="489.0" type="line" smooth="yes"/>
      <point x="382.0" y="489.0"/>
      <point x="398.0" y="471.0"/>
      <point x="398.0" y="428.0" type="curve" smooth="yes"/>
      <point x="398.0" y="382.0"/>
      <point x="382.0" y="359.0"/>
      <point x="352.0" y="359.0" type="curve" smooth="yes"/>
      <point x="349.0" y="359.0" type="line"/>
      <point x="349.0" y="489.0" type="line"/>
    </contour>
    <contour>
      <point x="347.0" y="335.0" type="line"/>
      <point x="401.0" y="152.0" type="line"/>
      <point x="536.0" y="152.0" type="line"/>
      <point x="536.0" y="213.0" type="line"/>
      <point x="533.0" y="213.0" type="line" smooth="yes"/>
      <point x="524.0" y="213.0"/>
      <point x="519.0" y="216.0"/>
      <point x="515.0" y="229.0" type="curve" smooth="yes"/>
      <point x="458.0" y="377.0" type="line"/>
    </contour>
  </outline>
</glyph>
<glyph name="acute" format="2">
  <advance width="421"/>
  <unicode hex="00B4"/>
  <anchor x="169" y="527" name="_top"/>
  <outline>
    <contour>
      <point x="170.0" y="682.0" type="curve" smooth="yes"/>
      <point x="154.0" y="585.0" type="line"/>
      <point x="154.0" y="555.0" type="line"/>
      <point x="220.0" y="555.0" type="line"/>
      <point x="279.0" y="604.0" type="line" smooth="yes"/>
      <point x="331.0" y="635.0"/>
      <point x="355.0" y="669.0"/>
      <point x="355.0" y="711.0" type="curve" smooth="yes"/>
      <point x="355.0" y="750.0"/>
      <point x="323.0" y="780.0"/>
      <point x="274.0" y="780.0" type="curve" smooth="yes"/>
      <point x="216.0" y="780.0"/>
      <point x="186.0" y="744.0"/>
    </contour>
  </outline>
</glyph>
<glyph name="AE" format="2">
  <advance width="809"/>
  <unicode hex="00C6"/>
  <anchor x="518" y="741" name="top"/>
  <outline>
    <contour>
      <point x="224.0" y="309.0" type="line"/>
      <point x="181.0" y="223.0" type="line"/>
      <point x="355.0" y="223.0" type="line"/>
      <point x="355.0" y="309.0" type="line"/>
    </contour>
    <contour>
      <point x="573.0" y="401.0" type="curve"/>
      <point x="573.0" y="326.0" type="line"/>
      <point x="622.0" y="321.0"/>
      <point x="673.0" y="317.0"/>
      <point x="722.0" y="313.0" type="curve"/>
      <point x="722.0" y="414.0" type="line"/>
      <point x="674.0" y="409.0"/>
      <point x="623.0" y="406.0"/>
    </contour>
    <contour>
      <point x="311.0" y="0.0" type="line"/>
      <point x="796.0" y="0.0" type="line"/>
      <point x="796.0" y="232.0" type="line"/>
      <point x="697.0" y="232.0" type="line"/>
      <point x="687.0" y="130.0" type="line" smooth="yes"/>
      <point x="683.0" y="94.0"/>
      <point x="660.0" y="87.0"/>
      <point x="598.0" y="87.0" type="curve" smooth="yes"/>
      <point x="595.0" y="87.0" type="line"/>
      <point x="595.0" y="623.0" type="line"/>
      <point x="605.0" y="623.0" type="line" smooth="yes"/>
      <point x="641.0" y="623.0"/>
      <point x="671.0" y="616.0"/>
      <point x="673.0" y="580.0" type="curve" smooth="yes"/>
      <point x="676.0" y="503.0" type="line"/>
      <point x="773.0" y="503.0" type="line"/>
      <point x="773.0" y="710.0" type="line"/>
      <point x="164.0" y="710.0" type="line"/>
      <point x="164.0" y="633.0" type="line"/>
      <point x="183.0" y="633.0" type="line" smooth="yes"/>
      <point x="236.0" y="633.0"/>
      <point x="256.0" y="623.0"/>
      <point x="257.0" y="601.0" type="curve"/>
      <point x="52.0" y="120.0" type="line" smooth="yes"/>
      <point x="38.0" y="88.0"/>
      <point x="23.0" y="77.0"/>
      <point x="8.0" y="77.0" type="curve" smooth="yes"/>
      <point x="4.0" y="77.0" type="line"/>
      <point x="4.0" y="0.0" type="line"/>
      <point x="178.0" y="0.0" type="line"/>
      <point x="178.0" y="77.0" type="line"/>
      <point x="170.0" y="77.0" type="line" smooth="yes"/>
      <point x="152.0" y="77.0"/>
      <point x="140.0" y="84.0"/>
      <point x="140.0" y="95.0" type="curve"/>
      <point x="348.0" y="603.0" type="line"/>
      <point x="348.0" y="603.0" type="line"/>
      <point x="348.0" y="109.0" type="line"/>
      <point x="348.0" y="83.0"/>
      <point x="338.0" y="77.0"/>
      <point x="319.0" y="77.0" type="curve" smooth="yes"/>
      <point x="311.0" y="77.0" type="line"/>
    </contour>
  </outline>
</glyph>
<glyph name="multiply" format="2">
  <advance width="472"/>
  <unicode hex="00D7"/>
  <outline>
    <contour>
      <point x="121.0" y="559.0" type="line"/>
      <point x="37.0" y="474.0" type="line"/>
      <point x="339.0" y="121.0" type="line"/>
      <point x="423.0" y="206.0" type="line"/>
    </contour>
    <contour>
      <point x="339.0" y="559.0" type="line"/>
      <point x="38.0" y="206.0" type="line"/>
      <point x="122.0" y="121.0" type="line"/>
      <point x="423.0" y="474.0" type="line"/>
    </contour>
  </outline>
</glyph>
<glyph name="ogonek" format="2">
  <advance width="505"/>
  <unicode hex="02DB"/>
  <anchor x="311" y="9" name="_right"/>
  <outline>
    <contour>
      <point x="316.0" y="42.0" type="line"/>
      <point x="172.0" y="-7.0"/>
      <point x="98.0" y="-54.0"/>
      <point x="98.0" y="-140.0" type="curve" smooth="yes"/>
      <point x="98.0" y="-208.0"/>
      <point x="149.0" y="-245.0"/>
      <point x="228.0" y="-245.0" type="curve" smooth="yes"/>
      <point x="303.0" y="-245.0"/>
      <point x="346.0" y="-214.0"/>
      <point x="378.0" y="-169.0" type="curve"/>
      <point x="334.0" y="-120.0" type="line"/>
      <point x="327.0" y="-129.0"/>
      <point x="312.0" y="-148.0"/>
      <point x="290.0" y="-148.0" type="curve" smooth="yes"/>
      <point x="270.0" y="-148.0"/>
      <point x="259.0" y="-135.0"/>
      <point x="259.0" y="-107.0" type="curve" smooth="yes"/>
      <point x="259.0" y="-72.0"/>
      <point x="279.0" y="-28.0"/>
      <point x="355.0" y="14.0" type="curve"/>
    </contour>
  </outline>
</glyph>
<glyph name="hungarumlaut" format="2">
  <advance width="421"/>
  <unicode hex="02DD"/>
  <anchor x="213" y="525" name="_top"/>
  <outline>
    <contour>
      <point x="74.0" y="685.0" type="curve" smooth="yes"/>
      <point x="74.0" y="585.0" type="line"/>
      <point x="74.0" y="559.0" type="line"/>
      <point x="149.0" y="559.0" type="line"/>
      <point x="178.0" y="617.0" type="line" smooth="yes"/>
      <point x="221.0" y="670.0"/>
      <point x="236.0" y="702.0"/>
      <point x="236.0" y="734.0" type="curve" smooth="yes"/>
      <point x="236.0" y="769.0"/>
      <point x="215.0" y="797.0"/>
      <point x="164.0" y="797.0" type="curve" smooth="yes"/>
      <point x="103.0" y="797.0"/>
      <point x="76.0" y="758.0"/>
    </contour>
    <contour>
      <point x="254.0" y="685.0" type="curve" smooth="yes"/>
      <point x="254.0" y="585.0" type="line"/>
      <point x="254.0" y="559.0" type="line"/>
      <point x="329.0" y="559.0" type="line"/>
      <point x="359.0" y="617.0" type="line" smooth="yes"/>
      <point x="401.0" y="670.0"/>
      <point x="416.0" y="702.0"/>
      <point x="416.0" y="734.0" type="curve" smooth="yes"/>
      <point x="416.0" y="769.0"/>
      <point x="395.0" y="797.0"/>
      <point x="345.0" y="797.0" type="curve" smooth="yes"/>
      <point x="283.0" y="797.0"/>
      <point x="255.0" y="758.0"/>
    </contour>
  </outline>
</glyph>
<glyph name="dagger" format="2">
  <advance width="491"/>
  <unicode hex="2020"/>
  <outline>
    <contour>
      <point x="202.0" y="464.0" type="line"/>
      <point x="289.0" y="464.0" type="line"/>
      <point x="436.0" y="387.0" type="line"/>
      <point x="471.0" y="387.0" type="line"/>
      <point x="471.0" y="581.0" type="line"/>
      <point x="436.0" y="581.0" type="line"/>
      <point x="289.0" y="518.0" type="line"/>
      <point x="202.0" y="518.0" type="line"/>
      <point x="56.0" y="581.0" type="line"/>
      <point x="21.0" y="581.0" type="line"/>
      <point x="21.0" y="387.0" type="line"/>
      <point x="56.0" y="387.0" type="line"/>
    </contour>
    <contour>
      <point x="378.0" y="710.0" type="line"/>
      <point x="113.0" y="710.0" type="line"/>
      <point x="113.0" y="666.0" type="line" smooth="yes"/>
      <point x="113.0" y="631.0"/>
      <point x="201.0" y="547.0"/>
      <point x="201.0" y="490.0" type="curve" smooth="yes"/>
      <point x="201.0" y="430.0"/>
      <point x="166.0" y="377.0"/>
      <point x="92.0" y="347.0" type="curve"/>
      <point x="92.0" y="318.0" type="line" smooth="yes"/>
      <point x="92.0" y="283.0"/>
      <point x="161.0" y="193.0"/>
      <point x="207.0" y="0.0" type="curve"/>
      <point x="284.0" y="0.0" type="line"/>
      <point x="330.0" y="193.0"/>
      <point x="400.0" y="283.0"/>
      <point x="400.0" y="318.0" type="curve" smooth="yes"/>
      <point x="400.0" y="347.0" type="line"/>
      <point x="326.0" y="377.0"/>
      <point x="290.0" y="430.0"/>
      <point x="290.0" y="490.0" type="curve" smooth="yes"/>
      <point x="290.0" y="547.0"/>
      <point x="378.0" y="631.0"/>
      <point x="378.0" y="666.0" type="curve" smooth="yes"/>
    </contour>
  </outline>
</glyph>
<glyph name="bullet" format="2">
  <advance width="365"/>
  <unicode hex="2022"/>
  <outline>
    <contour>
      <point x="29.0" y="341.0" type="curve" smooth="yes"/>
      <point x="29.0" y="246.0"/>
      <point x="93.0" y="180.0"/>
      <point x="182.0" y="180.0" type="curve" smooth="yes"/>
      <point x="272.0" y="180.0"/>
      <point x="336.0" y="246.0"/>
      <point x="336.0" y="341.0" type="curve" smooth="yes"/>
      <point x="336.0" y="436.0"/>
      <point x="272.0" y="502.0"/>
      <point x="182.0" y="502.0" type="curve" smooth="yes"/>
      <point x="93.0" y="502.0"/>
      <point x="29.0" y="436.0"/>
    </contour>
  </outline>
</glyph>
<glyph name="fraction" format="2">
  <advance width="356"/>
  <unicode hex="2044"/>
  <outline>
    <contour>
      <point x="360.0" y="710.0" type="line"/>
      <point x="-121.0" y="0.0" type="line"/>
      <point x="-7.0" y="0.0" type="line"/>
      <point x="474.0" y="710.0" type="line"/>
    </contour>
  </outline>
</glyph>
<glyph name="estimated" format="2">
  <advance width="706"/>
  <unicode hex="212E"/>
  <outline>
    <contour>
      <point x="153.0" y="159.0" type="line"/>
      <point x="202.0" y="81.0"/>
      <point x="272.0" y="45.0"/>
      <point x="353.0" y="45.0" type="curve" smooth="yes"/>
      <point x="471.0" y="45.0"/>
      <point x="558.0" y="122.0"/>
      <point x="601.0" y="236.0" type="curve"/>
      <point x="651.0" y="236.0" type="line"/>
      <point x="608.0" y="98.0"/>
      <point x="501.0" y="-10.0"/>
      <point x="353.0" y="-10.0" type="curve" smooth="yes"/>
      <point x="178.0" y="-10.0"/>
      <point x="42.0" y="150.0"/>
      <point x="42.0" y="355.0" type="curve" smooth="yes"/>
      <point x="42.0" y="560.0"/>
      <point x="178.0" y="720.0"/>
      <point x="353.0" y="720.0" type="curve" smooth="yes"/>
      <point x="529.0" y="720.0"/>
      <point x="664.0" y="560.0"/>
      <point x="664.0" y="355.0" type="curve"/>
      <point x="117.0" y="355.0" type="line"/>
      <point x="117.0" y="410.0" type="line"/>
      <point x="554.0" y="410.0" type="line"/>
      <point x="554.0" y="554.0" type="line"/>
      <point x="505.0" y="629.0"/>
      <point x="435.0" y="665.0"/>
      <point x="353.0" y="665.0" type="curve" smooth="yes"/>
      <point x="272.0" y="665.0"/>
      <point x="202.0" y="629.0"/>
      <point x="153.0" y="554.0" type="curve"/>
    </contour>
  </outline>
</glyph>
<glyph name="arrowleft" format="2">
  <advance width="621"/>
  <unicode hex="2190"/>
  <outline>
    <contour>
      <point x="347.0" y="560.0" type="line"/>
      <point x="47.0" y="360.0" type="line"/>
      <point x="47.0" y="346.0" type="line"/>
      <point x="347.0" y="146.0" type="line"/>
      <point x="356.0" y="159.0" type="line"/>
      <point x="239.0" y="324.0" type="line"/>
      <point x="575.0" y="324.0" type="line"/>
      <point x="575.0" y="382.0" type="line"/>
      <point x="239.0" y="382.0" type="line"/>
      <point x="356.0" y="547.0" type="line"/>
    </contour>
  </outline>
</glyph>
<glyph name="integral" format="2">
  <advance width="618"/>
  <unicode hex="222B"/>
  <outline>
    <contour>
      <point x="400.0" y="-4.0" type="curve" smooth="yes"/>
      <point x="411.0" y="505.0" type="line" smooth="yes"/>
      <point x="414.0" y="622.0"/>
      <point x="425.0" y="649.0"/>
      <point x="455.0" y="649.0" type="curve" smooth="yes"/>
      <point x="477.0" y="649.0"/>
      <point x="494.0" y="631.0"/>
      <point x="501.0" y="605.0" type="curve"/>
      <point x="523.0" y="619.0"/>
      <point x="502.0" y="657.0"/>
      <point x="478.0" y="656.0" type="curve"/>
      <point x="478.0" y="571.0" type="line"/>
      <point x="612.0" y="571.0" type="line"/>
      <point x="612.0" y="691.0" type="line"/>
      <point x="596.0" y="705.0"/>
      <point x="537.0" y="737.0"/>
      <point x="433.0" y="737.0" type="curve" smooth="yes"/>
      <point x="281.0" y="737.0"/>
      <point x="184.0" y="655.0"/>
      <point x="180.0" y="505.0" type="curve" smooth="yes"/>
      <point x="169.0" y="-4.0" type="line" smooth="yes"/>
      <point x="166.0" y="-121.0"/>
      <point x="156.0" y="-148.0"/>
      <point x="125.0" y="-148.0" type="curve" smooth="yes"/>
      <point x="104.0" y="-148.0"/>
      <point x="86.0" y="-130.0"/>
      <point x="80.0" y="-104.0" type="curve"/>
      <point x="57.0" y="-118.0"/>
      <point x="77.0" y="-156.0"/>
      <point x="102.0" y="-155.0" type="curve"/>
      <point x="102.0" y="-70.0" type="line"/>
      <point x="-32.0" y="-70.0" type="line"/>
      <point x="-32.0" y="-190.0" type="line"/>
      <point x="-16.0" y="-204.0"/>
      <point x="44.0" y="-236.0"/>
      <point x="147.0" y="-236.0" type="curve" smooth="yes"/>
      <point x="299.0" y="-236.0"/>
      <point x="396.0" y="-154.0"/>
    </contour>
  </outline>
</glyph>
<glyph name="two.den" format="2">
  <advance width="325"/>
  <unicode hex="E404"/>
  <outline>
    <contour>
      <point x="194.0" y="101.0" type="line" smooth="yes"/>
      <point x="232.0" y="101.0"/>
      <point x="245.0" y="105.0"/>
      <point x="249.0" y="128.0" type="curve" smooth="yes"/>
      <point x="255.0" y="157.0" type="line"/>
      <point x="310.0" y="157.0" type="line"/>
      <point x="310.0" y="0.0" type="line"/>
      <point x="16.0" y="0.0" type="line"/>
      <point x="16.0" y="109.0" type="line"/>
      <point x="119.0" y="164.0"/>
      <point x="156.0" y="189.0"/>
      <point x="156.0" y="269.0" type="curve" smooth="yes"/>
      <point x="156.0" y="304.0"/>
      <point x="149.0" y="319.0"/>
      <point x="133.0" y="319.0" type="curve" smooth="yes"/>
      <point x="111.0" y="319.0"/>
      <point x="99.0" y="290.0"/>
      <point x="97.0" y="271.0" type="curve"/>
      <point x="97.0" y="288.0"/>
      <point x="104.0" y="329.0"/>
      <point x="123.0" y="331.0" type="curve"/>
      <point x="123.0" y="251.0" type="line"/>
      <point x="16.0" y="251.0" type="line"/>
      <point x="16.0" y="311.0" type="line"/>
      <point x="43.0" y="353.0"/>
      <point x="90.0" y="379.0"/>
      <point x="159.0" y="379.0" type="curve" smooth="yes"/>
      <point x="254.0" y="379.0"/>
      <point x="301.0" y="336.0"/>
      <point x="301.0" y="267.0" type="curve" smooth="yes"/>
      <point x="301.0" y="171.0"/>
      <point x="176.0" y="124.0"/>
      <point x="83.0" y="84.0" type="curve"/>
      <point x="68.0" y="84.0"/>
      <point x="74.0" y="97.0"/>
      <point x="73.0" y="101.0" type="curve"/>
    </contour>
  </outline>
</glyph>
<glyph name="f_f_i" format="2">
  <advance width="911"/>
  <unicode hex="FB03"/>
  <outline>
    <contour>
      <point x="-6.0" y="513.0" type="line"/>
      <point x="-6.0" y="432.0" type="line"/>
      <point x="351.0" y="432.0" type="line"/>
      <point x="351.0" y="513.0" type="line"/>
    </contour>
    <contour>
      <point x="294.0" y="513.0" type="line"/>
      <point x="294.0" y="432.0" type="line"/>
      <point x="652.0" y="432.0" type="line"/>
      <point x="652.0" y="513.0" type="line"/>
    </contour>
    <contour>
      <point x="764.0" y="565.0" type="curve" smooth="yes"/>
      <point x="838.0" y="565.0"/>
      <point x="879.0" y="599.0"/>
      <point x="879.0" y="657.0" type="curve" smooth="yes"/>
      <point x="879.0" y="714.0"/>
      <point x="838.0" y="749.0"/>
      <point x="764.0" y="749.0" type="curve" smooth="yes"/>
      <point x="691.0" y="749.0"/>
      <point x="649.0" y="714.0"/>
      <point x="649.0" y="657.0" type="curve" smooth="yes"/>
      <point x="649.0" y="598.0"/>
      <point x="691.0" y="565.0"/>
    </contour>
    <contour>
      <point x="629.0" y="0.0" type="line"/>
      <point x="902.0" y="0.0" type="line"/>
      <point x="902.0" y="72.0" type="line"/>
      <point x="901.0" y="72.0" type="line" smooth="yes"/>
      <point x="890.0" y="72.0"/>
      <point x="881.0" y="78.0"/>
      <point x="881.0" y="99.0" type="curve" smooth="yes"/>
      <point x="881.0" y="513.0" type="line"/>
      <point x="629.0" y="513.0" type="line"/>
      <point x="629.0" y="432.0" type="line"/>
      <point x="634.0" y="432.0" type="line" smooth="yes"/>
      <point x="646.0" y="432.0"/>
      <point x="649.0" y="421.0"/>
      <point x="649.0" y="403.0" type="curve"/>
      <point x="649.0" y="80.0" type="line"/>
      <point x="649.0" y="74.0"/>
      <point x="639.0" y="72.0"/>
      <point x="632.0" y="72.0" type="curve" smooth="yes"/>
      <point x="629.0" y="72.0" type="line"/>
    </contour>
    <contour>
      <point x="279.0" y="80.0" type="curve"/>
      <point x="279.0" y="576.0" type="line" smooth="yes"/>
      <point x="279.0" y="632.0"/>
      <point x="289.0" y="649.0"/>
      <point x="310.0" y="649.0" type="curve" smooth="yes"/>
      <point x="320.0" y="649.0"/>
      <point x="334.0" y="642.0"/>
      <point x="332.0" y="640.0" type="curve"/>
      <point x="332.0" y="725.0" type="line"/>
      <point x="322.0" y="731.0"/>
      <point x="291.0" y="737.0"/>
      <point x="252.0" y="737.0" type="curve" smooth="yes"/>
      <point x="141.0" y="737.0"/>
      <point x="48.0" y="685.0"/>
      <point x="48.0" y="532.0" type="curve" smooth="yes"/>
      <point x="48.0" y="102.0" type="line"/>
      <point x="48.0" y="81.0"/>
      <point x="38.0" y="72.0"/>
      <point x="19.0" y="72.0" type="curve" smooth="yes"/>
      <point x="9.0" y="72.0" type="line"/>
      <point x="9.0" y="0.0" type="line"/>
      <point x="302.0" y="0.0" type="line"/>
      <point x="302.0" y="72.0" type="line"/>
      <point x="300.0" y="72.0" type="line" smooth="yes"/>
      <point x="285.0" y="72.0"/>
      <point x="279.0" y="74.0"/>
    </contour>
    <contour>
      <point x="349.0" y="80.0" type="line"/>
      <point x="349.0" y="74.0"/>
      <point x="343.0" y="72.0"/>
      <point x="333.0" y="72.0" type="curve" smooth="yes"/>
      <point x="334.0" y="72.0" type="line"/>
      <point x="334.0" y="0.0" type="line"/>
      <point x="597.0" y="0.0" type="line"/>
      <point x="597.0" y="72.0" type="line"/>
      <point x="597.0" y="72.0" type="line" smooth="yes"/>
      <point x="589.0" y="72.0"/>
      <point x="579.0" y="74.0"/>
      <point x="579.0" y="80.0" type="curve"/>
      <point x="579.0" y="586.0" type="line" smooth="yes"/>
      <point x="579.0" y="643.0"/>
      <point x="589.0" y="659.0"/>
      <point x="610.0" y="659.0" type="curve" smooth="yes"/>
      <point x="618.0" y="659.0"/>
      <point x="632.0" y="653.0"/>
      <point x="631.0" y="651.0" type="curve"/>
      <point x="631.0" y="735.0" type="line"/>
      <point x="621.0" y="741.0"/>
      <point x="591.0" y="748.0"/>
      <point x="552.0" y="748.0" type="curve" smooth="yes"/>
      <point x="440.0" y="748.0"/>
      <point x="349.0" y="695.0"/>
      <point x="349.0" y="543.0" type="curve"/>
    </contour>
  </outline>
</glyph>
<glyph name="Euro.proportional" format="2">
  <advance width="611"/>
  <outline>
    <contour>
      <point x="42.0" y="306.0" type="line"/>
      <point x="42.0" y="221.0" type="line"/>
      <point x="406.0" y="221.0" type="line"/>
      <point x="406.0" y="306.0" type="line"/>
    </contour>
    <contour>
      <point x="42.0" y="468.0" type="line"/>
      <point x="42.0" y="382.0" type="line"/>
      <point x="430.0" y="382.0" type="line"/>
      <point x="430.0" y="468.0" type="line"/>
    </contour>
    <contour>
      <point x="316.0" y="355.0" type="curve" smooth="yes"/>
      <point x="316.0" y="520.0"/>
      <point x="335.0" y="628.0"/>
      <point x="398.0" y="628.0" type="curve" smooth="yes"/>
      <point x="437.0" y="628.0"/>
      <point x="457.0" y="600.0"/>
      <point x="481.0" y="539.0" type="curve"/>
      <point x="486.0" y="580.0"/>
      <point x="475.0" y="614.0"/>
      <point x="434.0" y="626.0" type="curve"/>
      <point x="434.0" y="513.0" type="line"/>
      <point x="586.0" y="513.0" type="line"/>
      <point x="586.0" y="657.0" type="line"/>
      <point x="568.0" y="677.0"/>
      <point x="492.0" y="720.0"/>
      <point x="385.0" y="720.0" type="curve" smooth="yes"/>
      <point x="203.0" y="720.0"/>
      <point x="84.0" y="583.0"/>
      <point x="84.0" y="355.0" type="curve" smooth="yes"/>
      <point x="84.0" y="129.0"/>
      <point x="204.0" y="-10.0"/>
      <point x="372.0" y="-10.0" type="curve" smooth="yes"/>
      <point x="511.0" y="-10.0"/>
      <point x="569.0" y="90.0"/>
      <point x="593.0" y="217.0" type="curve"/>
      <point x="518.0" y="248.0" type="line"/>
      <point x="501.0" y="157.0"/>
      <point x="469.0" y="83.0"/>
      <point x="411.0" y="83.0" type="curve" smooth="yes"/>
      <point x="345.0" y="83.0"/>
      <point x="316.0" y="181.0"/>
    </contour>
  </outline>
</glyph>
<glyph name="commaaccent" format="2">
  <advance width="421"/>
  <anchor x="208" y="33" name="_bottom"/>
  <outline>
    <contour>
      <point x="175.0" y="-335.0" type="line"/>
      <point x="241.0" y="-270.0"/>
      <point x="276.0" y="-211.0"/>
      <point x="276.0" y="-144.0" type="curve" smooth="yes"/>
      <point x="276.0" y="-78.0"/>
      <point x="235.0" y="-47.0"/>
      <point x="179.0" y="-47.0" type="curve" smooth="yes"/>
      <point x="121.0" y="-47.0"/>
      <point x="87.0" y="-81.0"/>
      <point x="87.0" y="-123.0" type="curve" smooth="yes"/>
      <point x="87.0" y="-167.0"/>
      <point x="119.0" y="-198.0"/>
      <point x="167.0" y="-198.0" type="curve" smooth="yes"/>
      <point x="183.0" y="-198.0"/>
      <point x="195.0" y="-197.0"/>
      <point x="203.0" y="-191.0" type="curve"/>
      <point x="192.0" y="-165.0" type="line"/>
      <point x="188.0" y="-207.0"/>
      <point x="139.0" y="-240.0"/>
      <point x="77.0" y="-283.0" type="curve"/>
    </contour>
  </outline>
</glyph>
<glyph name="dieresis.uc" format="2">
  <advance width="421"/>
  <anchor x="210" y="694" name="_top"/>
  <outline>
    <contour>
      <point x="99.0" y="762.0" type="curve" smooth="yes"/>
      <point x="166.0" y="762.0"/>
      <point x="205.0" y="797.0"/>
      <point x="205.0" y="854.0" type="curve" smooth="yes"/>
      <point x="205.0" y="912.0"/>
      <point x="166.0" y="946.0"/>
      <point x="99.0" y="946.0" type="curve" smooth="yes"/>
      <point x="31.0" y="946.0"/>
      <point x="-8.0" y="912.0"/>
      <point x="-8.0" y="854.0" type="curve" smooth="yes"/>
      <point x="-8.0" y="796.0"/>
      <point x="31.0" y="762.0"/>
    </contour>
    <contour>
      <point x="321.0" y="762.0" type="curve" smooth="yes"/>
      <point x="390.0" y="762.0"/>
      <point x="429.0" y="797.0"/>
      <point x="429.0" y="854.0" type="curve" smooth="yes"/>
      <point x="429.0" y="912.0"/>
      <point x="390.0" y="946.0"/>
      <point x="321.0" y="946.0" type="curve" smooth="yes"/>
      <point x="254.0" y="946.0"/>
      <point x="214.0" y="912.0"/>
      <point x="214.0" y="854.0" type="curve" smooth="yes"/>
      <point x="214.0" y="796.0"/>
      <point x="254.0" y="762.0"/>
    </contour>
  </outline>
</glyph>
<glyph name="dong.proportional" format="2">
  <advance width="590"/>
  <outline>
    <contour>
      <point x="259.0" y="248.0" type="curve" smooth="yes"/>
      <point x="259.0" y="352.0"/>
      <point x="267.0" y="416.0"/>
      <point x="294.0" y="416.0" type="curve" smooth="yes"/>
      <point x="324.0" y="416.0"/>
      <point x="329.0" y="369.0"/>
      <point x="343.0" y="304.0" type="curve"/>
      <point x="380.0" y="322.0" type="line"/>
      <point x="364.0" y="454.0"/>
      <point x="313.0" y="523.0"/>
      <point x="214.0" y="523.0" type="curve" smooth="yes"/>
      <point x="103.0" y="523.0"/>
      <point x="23.0" y="410.0"/>
      <point x="23.0" y="248.0" type="curve" smooth="yes"/>
      <point x="23.0" y="91.0"/>
      <point x="94.0" y="-13.0"/>
      <point x="207.0" y="-13.0" type="curve" smooth="yes"/>
      <point x="293.0" y="-13.0"/>
      <point x="329.0" y="45.0"/>
      <point x="368.0" y="159.0" type="curve"/>
      <point x="342.0" y="216.0" type="line"/>
      <point x="320.0" y="143.0"/>
      <point x="312.0" y="93.0"/>
      <point x="287.0" y="93.0" type="curve" smooth="yes"/>
      <point x="266.0" y="93.0"/>
      <point x="259.0" y="147.0"/>
    </contour>
    <contour>
      <point x="320.0" y="714.0" type="line"/>
      <point x="320.0" y="108.0" type="line"/>
      <point x="333.0" y="121.0" type="line"/>
      <point x="333.0" y="0.0" type="line"/>
      <point x="572.0" y="0.0" type="line"/>
      <point x="572.0" y="75.0" type="line"/>
      <point x="565.0" y="77.0" type="line" smooth="yes"/>
      <point x="553.0" y="82.0"/>
      <point x="553.0" y="86.0"/>
      <point x="553.0" y="104.0" type="curve" smooth="yes"/>
      <point x="553.0" y="714.0" type="line"/>
    </contour>
    <contour>
      <point x="87.0" y="-91.0" type="line"/>
      <point x="87.0" y="-190.0" type="line"/>
      <point x="515.0" y="-190.0" type="line"/>
      <point x="515.0" y="-91.0" type="line"/>
    </contour>
    <contour>
      <point x="209.0" y="653.0" type="line"/>
      <point x="209.0" y="564.0" type="line"/>
      <point x="579.0" y="564.0" type="line"/>
      <point x="579.0" y="653.0" type="line"/>
    </contour>
  </outline>
</glyph>
<glyph name="f_l" format="2">
  <advance width="610"/>
  <outline>
    <contour>
      <point x="-6.0" y="513.0" type="line"/>
      <point x="-6.0" y="432.0" type="line"/>
      <point x="326.0" y="432.0" type="line"/>
      <point x="326.0" y="513.0" type="line"/>
    </contour>
    <contour>
      <point x="349.0" y="80.0" type="line"/>
      <point x="349.0" y="74.0"/>
      <point x="339.0" y="72.0"/>
      <point x="334.0" y="72.0" type="curve" smooth="yes"/>
      <point x="331.0" y="72.0" type="line"/>
      <point x="331.0" y="0.0" type="line"/>
      <point x="601.0" y="0.0" type="line"/>
      <point x="601.0" y="72.0" type="line"/>
      <point x="600.0" y="72.0" type="line" smooth="yes"/>
      <point x="590.0" y="72.0"/>
      <point x="581.0" y="78.0"/>
      <point x="581.0" y="99.0" type="curve"/>
      <point x="581.0" y="731.0" type="line"/>
      <point x="330.0" y="731.0" type="line"/>
      <point x="349.0" y="701.0" type="line"/>
    </contour>
    <contour>
      <point x="300.0" y="0.0" type="line"/>
      <point x="300.0" y="72.0" type="line"/>
      <point x="299.0" y="72.0" type="line" smooth="yes"/>
      <point x="285.0" y="72.0"/>
      <point x="279.0" y="74.0"/>
      <point x="279.0" y="80.0" type="curve"/>
      <point x="279.0" y="574.0" type="line" smooth="yes"/>
      <point x="279.0" y="636.0"/>
      <point x="292.0" y="659.0"/>
      <point x="324.0" y="659.0" type="curve" smooth="yes"/>
      <point x="357.0" y="659.0"/>
      <point x="378.0" y="634.0"/>
      <point x="390.0" y="572.0" type="curve"/>
      <point x="496.0" y="695.0" type="line"/>
      <point x="451.0" y="722.0"/>
      <point x="393.0" y="748.0"/>
      <point x="297.0" y="748.0" type="curve" smooth="yes"/>
      <point x="163.0" y="748.0"/>
      <point x="48.0" y="695.0"/>
      <point x="48.0" y="543.0" type="curve" smooth="yes"/>
      <point x="48.0" y="102.0" type="line" smooth="yes"/>
      <point x="48.0" y="81.0"/>
      <point x="38.0" y="72.0"/>
      <point x="19.0" y="72.0" type="curve" smooth="yes"/>
      <point x="9.0" y="72.0" type="line"/>
      <point x="9.0" y="0.0" type="line"/>
    </contour>
  </outline>
</glyph>
<glyph name="five.midprop" format="2">
  <advance width="513"/>
  <outline>
    <contour>
      <point x="249.0" y="-90.0" type="curve" smooth="yes"/>
      <point x="119.0" y="-90.0"/>
      <point x="48.0" y="-19.0"/>
      <point x="17.0" y="72.0" type="curve"/>
      <point x="104.0" y="127.0" type="line"/>
      <point x="120.0" y="74.0"/>
      <point x="155.0" y="5.0"/>
      <point x="210.0" y="5.0" type="curve" smooth="yes"/>
      <point x="260.0" y="5.0"/>
      <point x="280.0" y="57.0"/>
      <point x="280.0" y="152.0" type="curve" smooth="yes"/>
      <point x="280.0" y="232.0"/>
      <point x="262.0" y="278.0"/>
      <point x="219.0" y="278.0" type="curve" smooth="yes"/>
      <point x="182.0" y="278.0"/>
      <point x="162.0" y="251.0"/>
      <point x="151.0" y="207.0" type="curve"/>
      <point x="65.0" y="207.0" type="line"/>
      <point x="65.0" y="609.0" type="line"/>
      <point x="448.0" y="609.0" type="line"/>
      <point x="437.0" y="461.0" type="line"/>
      <point x="147.0" y="461.0" type="line"/>
      <point x="159.0" y="589.0" type="line"/>
      <point x="159.0" y="276.0" type="line"/>
      <point x="154.0" y="263.0"/>
      <point x="145.0" y="258.0"/>
      <point x="134.0" y="269.0" type="curve"/>
      <point x="163.0" y="324.0"/>
      <point x="202.0" y="366.0"/>
      <point x="297.0" y="366.0" type="curve" smooth="yes"/>
      <point x="420.0" y="366.0"/>
      <point x="489.0" y="272.0"/>
      <point x="489.0" y="151.0" type="curve" smooth="yes"/>
      <point x="489.0" y="4.0"/>
      <point x="397.0" y="-90.0"/>
    </contour>
  </outline>
</glyph>
<glyph name="kgreenlandic" format="2">
  <advance width="628"/>
  <outline>
    <contour>
      <point x="620.0" y="0.0" type="line"/>
      <point x="620.0" y="72.0" type="line"/>
      <point x="618.0" y="72.0" type="line"/>
      <point x="598.0" y="72.0"/>
      <point x="580.0" y="80.0"/>
      <point x="571.0" y="104.0" type="curve" smooth="yes"/>
      <point x="438.0" y="366.0" type="line"/>
      <point x="381.0" y="269.0" type="line"/>
      <point x="507.0" y="402.0" type="line" smooth="yes"/>
      <point x="524.0" y="424.0"/>
      <point x="547.0" y="442.0"/>
      <point x="580.0" y="442.0" type="curve"/>
      <point x="581.0" y="442.0" type="line"/>
      <point x="581.0" y="513.0" type="line"/>
      <point x="354.0" y="513.0" type="line"/>
      <point x="354.0" y="442.0" type="line"/>
      <point x="357.0" y="442.0" type="line" smooth="yes"/>
      <point x="375.0" y="442.0"/>
      <point x="411.0" y="439.0"/>
      <point x="411.0" y="424.0" type="curve"/>
      <point x="278.0" y="280.0" type="line"/>
      <point x="278.0" y="250.0" type="line"/>
      <point x="329.0" y="80.0" type="line"/>
      <point x="329.0" y="74.0"/>
      <point x="319.0" y="72.0"/>
      <point x="314.0" y="72.0" type="curve" smooth="yes"/>
      <point x="311.0" y="72.0" type="line"/>
      <point x="311.0" y="0.0" type="line"/>
    </contour>
    <contour>
      <point x="262.0" y="513.0" type="line"/>
      <point x="10.0" y="513.0" type="line"/>
      <point x="10.0" y="438.0" type="line"/>
      <point x="15.0" y="436.0" type="line" smooth="yes"/>
      <point x="27.0" y="430.0"/>
      <point x="30.0" y="425.0"/>
      <point x="30.0" y="407.0" type="curve" smooth="yes"/>
      <point x="30.0" y="99.0" type="line"/>
      <point x="30.0" y="78.0"/>
      <point x="21.0" y="72.0"/>
      <point x="10.0" y="72.0" type="curve" smooth="yes"/>
      <point x="9.0" y="72.0" type="line"/>
      <point x="9.0" y="0.0" type="line"/>
      <point x="280.0" y="0.0" type="line"/>
      <point x="280.0" y="72.0" type="line"/>
      <point x="277.0" y="72.0" type="line" smooth="yes"/>
      <point x="271.0" y="72.0"/>
      <point x="262.0" y="74.0"/>
      <point x="262.0" y="80.0" type="curve"/>
    </contour>
  </outline>
</glyph>
<glyph name="liraTurkish" format="2">
  <advance width="472"/>
  <outline>
    <contour>
      <point x="10.0" y="390.0" type="line"/>
      <point x="10.0" y="308.0" type="line"/>
      <point x="333.0" y="507.0" type="line"/>
      <point x="333.0" y="589.0" type="line"/>
    </contour>
    <contour>
      <point x="10.0" y="240.0" type="line"/>
      <point x="10.0" y="158.0" type="line"/>
      <point x="333.0" y="357.0" type="line"/>
      <point x="333.0" y="439.0" type="line"/>
    </contour>
    <contour>
      <point x="262.0" y="88.0" type="curve" smooth="yes"/>
      <point x="264.0" y="88.0" type="line"/>
      <point x="264.0" y="597.0" type="line" smooth="yes"/>
      <point x="264.0" y="626.0"/>
      <point x="277.0" y="633.0"/>
      <point x="296.0" y="633.0" type="curve" smooth="yes"/>
      <point x="310.0" y="633.0" type="line"/>
      <point x="310.0" y="710.0" type="line"/>
      <point x="10.0" y="710.0" type="line"/>
      <point x="10.0" y="633.0" type="line"/>
      <point x="19.0" y="633.0" type="line" smooth="yes"/>
      <point x="35.0" y="633.0"/>
      <point x="48.0" y="626.0"/>
      <point x="48.0" y="597.0" type="curve" smooth="yes"/>
      <point x="48.0" y="113.0" type="line" smooth="yes"/>
      <point x="48.0" y="84.0"/>
      <point x="35.0" y="77.0"/>
      <point x="19.0" y="77.0" type="curve" smooth="yes"/>
      <point x="10.0" y="77.0" type="line"/>
      <point x="10.0" y="0.0" type="line"/>
      <point x="199.0" y="0.0" type="line" smooth="yes"/>
      <point x="391.0" y="0.0"/>
      <point x="458.0" y="96.0"/>
      <point x="472.0" y="267.0" type="curve"/>
      <point x="333.0" y="304.0" type="line"/>
      <point x="329.0" y="191.0"/>
      <point x="312.0" y="88.0"/>
    </contour>
  </outline>
</glyph>
<glyph name="sterling.altprop" format="2">
  <advance width="530"/>
  <outline>
    <contour>
      <point x="22.0" y="409.0" type="line"/>
      <point x="22.0" y="305.0" type="line"/>
      <point x="439.0" y="305.0" type="line"/>
      <point x="439.0" y="409.0" type="line"/>
    </contour>
    <contour>
      <point x="270.0" y="542.0" type="curve" smooth="yes"/>
      <point x="270.0" y="595.0"/>
      <point x="283.0" y="625.0"/>
      <point x="309.0" y="625.0" type="curve" smooth="yes"/>
      <point x="323.0" y="625.0"/>
      <point x="333.0" y="614.0"/>
      <point x="341.0" y="590.0" type="curve"/>
      <point x="370.0" y="599.0"/>
      <point x="372.0" y="629.0"/>
      <point x="332.0" y="629.0" type="curve"/>
      <point x="332.0" y="515.0" type="line"/>
      <point x="494.0" y="515.0" type="line"/>
      <point x="494.0" y="661.0" type="line"/>
      <point x="456.0" y="693.0"/>
      <point x="395.0" y="720.0"/>
      <point x="294.0" y="720.0" type="curve" smooth="yes"/>
      <point x="134.0" y="720.0"/>
      <point x="47.0" y="632.0"/>
      <point x="47.0" y="527.0" type="curve" smooth="yes"/>
      <point x="47.0" y="399.0"/>
      <point x="133.0" y="344.0"/>
      <point x="133.0" y="240.0" type="curve" smooth="yes"/>
      <point x="133.0" y="182.0"/>
      <point x="96.0" y="143.0"/>
      <point x="22.0" y="124.0" type="curve"/>
      <point x="22.0" y="0.0" type="line"/>
      <point x="512.0" y="0.0" type="line"/>
      <point x="512.0" y="245.0" type="line"/>
      <point x="429.0" y="245.0" type="line"/>
      <point x="421.0" y="188.0" type="line" smooth="yes"/>
      <point x="415.0" y="152.0"/>
      <point x="395.0" y="145.0"/>
      <point x="332.0" y="145.0" type="curve" smooth="yes"/>
      <point x="231.0" y="145.0" type="line"/>
      <point x="140.0" y="100.0" type="line"/>
      <point x="266.0" y="132.0"/>
      <point x="311.0" y="193.0"/>
      <point x="311.0" y="277.0" type="curve" smooth="yes"/>
      <point x="311.0" y="380.0"/>
      <point x="270.0" y="459.0"/>
    </contour>
  </outline>
</glyph>
<glyph name="three.linprop" format="2">
  <advance width="518"/>
  <outline>
    <contour>
      <point x="215.0" y="384.0" type="line"/>
      <point x="410.0" y="384.0"/>
      <point x="497.0" y="318.0"/>
      <point x="497.0" y="201.0" type="curve" smooth="yes"/>
      <point x="497.0" y="62.0"/>
      <point x="379.0" y="-10.0"/>
      <point x="242.0" y="-10.0" type="curve" smooth="yes"/>
      <point x="89.0" y="-10.0"/>
      <point x="29.0" y="65.0"/>
      <point x="2.0" y="158.0" type="curve"/>
      <point x="87.0" y="207.0" type="line"/>
      <point x="103.0" y="157.0"/>
      <point x="133.0" y="84.0"/>
      <point x="200.0" y="84.0" type="curve" smooth="yes"/>
      <point x="253.0" y="84.0"/>
      <point x="287.0" y="124.0"/>
      <point x="287.0" y="214.0" type="curve" smooth="yes"/>
      <point x="287.0" y="278.0"/>
      <point x="277.0" y="330.0"/>
      <point x="206.0" y="330.0" type="curve" smooth="yes"/>
      <point x="155.0" y="330.0" type="line"/>
      <point x="155.0" y="416.0" type="line"/>
      <point x="190.0" y="416.0" type="line" smooth="yes"/>
      <point x="253.0" y="416.0"/>
      <point x="277.0" y="456.0"/>
      <point x="277.0" y="545.0" type="curve" smooth="yes"/>
      <point x="277.0" y="605.0"/>
      <point x="259.0" y="630.0"/>
      <point x="240.0" y="630.0" type="curve" smooth="yes"/>
      <point x="224.0" y="630.0"/>
      <point x="203.0" y="609.0"/>
      <point x="194.0" y="585.0" type="curve"/>
      <point x="190.0" y="592.0"/>
      <point x="187.0" y="638.0"/>
      <point x="216.0" y="641.0" type="curve"/>
      <point x="216.0" y="525.0" type="line"/>
      <point x="57.0" y="525.0" type="line"/>
      <point x="57.0" y="645.0" type="line"/>
      <point x="95.0" y="684.0"/>
      <point x="173.0" y="720.0"/>
      <point x="264.0" y="720.0" type="curve" smooth="yes"/>
      <point x="374.0" y="720.0"/>
      <point x="481.0" y="666.0"/>
      <point x="481.0" y="546.0" type="curve" smooth="yes"/>
      <point x="481.0" y="422.0"/>
      <point x="348.0" y="366.0"/>
      <point x="195.0" y="366.0" type="curve"/>
      <point x="263.0" y="398.0" type="line"/>
      <point x="263.0" y="354.0" type="line"/>
    </contour>
  </outline>
</glyph>
<glyph name="three.oldtab" format="2">
  <advance width="471"/>
  <outline>
    <contour>
      <point x="189.0" y="235.0" type="line"/>
      <point x="386.0" y="235.0"/>
      <point x="468.0" y="166.0"/>
      <point x="468.0" y="54.0" type="curve"/>
      <point x="468.0" y="-80.0"/>
      <point x="363.0" y="-150.0"/>
      <point x="234.0" y="-150.0" type="curve" smooth="yes"/>
      <point x="103.0" y="-150.0"/>
      <point x="38.0" y="-80.0"/>
      <point x="20.0" y="4.0" type="curve"/>
      <point x="103.0" y="58.0" type="line"/>
      <point x="112.0" y="17.0"/>
      <point x="138.0" y="-56.0"/>
      <point x="192.0" y="-56.0" type="curve" smooth="yes"/>
      <point x="237.0" y="-56.0"/>
      <point x="257.0" y="-15.0"/>
      <point x="257.0" y="61.0" type="curve" smooth="yes"/>
      <point x="257.0" y="130.0"/>
      <point x="248.0" y="180.0"/>
      <point x="173.0" y="180.0" type="curve" smooth="yes"/>
      <point x="140.0" y="180.0" type="line"/>
      <point x="140.0" y="267.0" type="line"/>
      <point x="163.0" y="267.0" type="line" smooth="yes"/>
      <point x="230.0" y="267.0"/>
      <point x="251.0" y="304.0"/>
      <point x="251.0" y="388.0" type="curve" smooth="yes"/>
      <point x="251.0" y="445.0"/>
      <point x="240.0" y="468.0"/>
      <point x="218.0" y="468.0" type="curve" smooth="yes"/>
      <point x="199.0" y="468.0"/>
      <point x="189.0" y="447.0"/>
      <point x="180.0" y="423.0" type="curve"/>
      <point x="175.0" y="430.0"/>
      <point x="175.0" y="476.0"/>
      <point x="203.0" y="479.0" type="curve"/>
      <point x="203.0" y="363.0" type="line"/>
      <point x="44.0" y="363.0" type="line"/>
      <point x="44.0" y="483.0" type="line"/>
      <point x="83.0" y="522.0"/>
      <point x="149.0" y="558.0"/>
      <point x="245.0" y="558.0" type="curve" smooth="yes"/>
      <point x="358.0" y="558.0"/>
      <point x="455.0" y="507.0"/>
      <point x="455.0" y="391.0" type="curve" smooth="yes"/>
      <point x="455.0" y="270.0"/>
      <point x="330.0" y="217.0"/>
      <point x="173.0" y="217.0" type="curve"/>
      <point x="303.0" y="244.0" type="line"/>
      <point x="303.0" y="213.0" type="line"/>
    </contour>
  </outline>
</glyph>
<glyph name="two.linprop" format="2">
  <advance width="514"/>
  <outline>
    <contour>
      <point x="251.0" y="720.0" type="curve" smooth="yes"/>
      <point x="402.0" y="720.0"/>
      <point x="481.0" y="644.0"/>
      <point x="481.0" y="519.0" type="curve" smooth="yes"/>
      <point x="481.0" y="334.0"/>
      <point x="266.0" y="217.0"/>
      <point x="108.0" y="121.0" type="curve"/>
      <point x="105.0" y="118.0"/>
      <point x="112.0" y="141.0"/>
      <point x="101.0" y="147.0" type="curve"/>
      <point x="307.0" y="147.0" type="line" smooth="yes"/>
      <point x="370.0" y="147.0"/>
      <point x="392.0" y="151.0"/>
      <point x="397.0" y="187.0" type="curve" smooth="yes"/>
      <point x="403.0" y="237.0" type="line"/>
      <point x="487.0" y="237.0" type="line"/>
      <point x="487.0" y="0.0" type="line"/>
      <point x="17.0" y="0.0" type="line"/>
      <point x="17.0" y="160.0" type="line"/>
      <point x="154.0" y="278.0"/>
      <point x="267.0" y="355.0"/>
      <point x="267.0" y="523.0" type="curve" smooth="yes"/>
      <point x="267.0" y="597.0"/>
      <point x="251.0" y="630.0"/>
      <point x="218.0" y="630.0" type="curve" smooth="yes"/>
      <point x="197.0" y="630.0"/>
      <point x="178.0" y="607.0"/>
      <point x="167.0" y="582.0" type="curve"/>
      <point x="163.0" y="589.0"/>
      <point x="160.0" y="637.0"/>
      <point x="188.0" y="641.0" type="curve"/>
      <point x="188.0" y="512.0" type="line"/>
      <point x="30.0" y="512.0" type="line"/>
      <point x="30.0" y="644.0" type="line"/>
      <point x="71.0" y="681.0"/>
      <point x="150.0" y="720.0"/>
    </contour>
  </outline>
</glyph>
<glyph name="whitedownpointingtriangle" format="2">
  <advance width="542"/>
  <outline>
    <contour>
      <point x="47.0" y="464.0" type="line"/>
      <point x="271.0" y="91.0" type="line"/>
      <point x="496.0" y="464.0" type="line"/>
    </contour>
    <contour>
      <point x="267.0" y="175.0" type="line"/>
      <point x="276.0" y="175.0" type="line"/>
      <point x="124.0" y="430.0" type="line"/>
      <point x="118.0" y="414.0" type="line"/>
      <point x="425.0" y="414.0" type="line"/>
      <point x="419.0" y="430.0" type="line"/>
    </contour>
  </outline>
</glyph>
